<svg width="35" height="35" viewBox="0 0 35 35" fill="none" xmlns="http://www.w3.org/2000/svg">
<path d="M5.79758 14.3501C5.85624 13.6192 6.18805 12.9372 6.72694 12.4399C7.26582 11.9426 7.97223 11.6666 8.70549 11.6667H26.2901C27.0233 11.6666 27.7298 11.9426 28.2686 12.4399C28.8075 12.9372 29.1393 13.6192 29.198 14.3501L30.369 28.9334C30.4012 29.3347 30.35 29.7384 30.2186 30.1189C30.0871 30.4995 29.8783 30.8487 29.6053 31.1446C29.3323 31.4405 29.001 31.6767 28.6322 31.8383C28.2634 31.9998 27.8652 32.0833 27.4626 32.0834H7.53299C7.13038 32.0833 6.73215 31.9998 6.36338 31.8383C5.99461 31.6767 5.66328 31.4405 5.39026 31.1446C5.11724 30.8487 4.90843 30.4995 4.77699 30.1189C4.64555 29.7384 4.59433 29.3347 4.62654 28.9334L5.79758 14.3501Z" stroke="white" stroke-width="2" stroke-linecap="round" stroke-linejoin="round"/>
<path d="M23.3307 16.0417V8.75008C23.3307 7.20299 22.7161 5.71925 21.6222 4.62529C20.5282 3.53133 19.0445 2.91675 17.4974 2.91675C15.9503 2.91675 14.4666 3.53133 13.3726 4.62529C12.2786 5.71925 11.6641 7.20299 11.6641 8.75008V16.0417" stroke="white" stroke-width="2" stroke-linecap="round" stroke-linejoin="round"/>
</svg>
