<svg width="19" height="19" viewBox="0 0 19 19" fill="none" xmlns="http://www.w3.org/2000/svg">
<path d="M10.45 9.5003L18.4103 1.54005C18.6739 1.27638 18.6739 0.849121 18.4103 0.585449C18.1466 0.321777 17.7193 0.321777 17.4557 0.585449L9.49542 8.5457L1.53516 0.585555C1.27149 0.321883 0.844238 0.321883 0.580566 0.585555C0.316895 0.849227 0.316895 1.27648 0.580566 1.54015L8.54082 9.5003L0.580566 17.4606C0.316895 17.7242 0.316895 18.1515 0.580566 18.4152C0.712402 18.547 0.88516 18.6129 1.05781 18.6129C1.23047 18.6129 1.40322 18.547 1.53506 18.4152L9.49542 10.4549L17.4557 18.4152C17.5875 18.547 17.7603 18.6129 17.9329 18.6129C18.1056 18.6129 18.2783 18.547 18.4102 18.4152C18.6738 18.1515 18.6738 17.7242 18.4102 17.4606L10.45 9.5003Z" fill="#444444"/>
</svg>
