<svg width="18" height="18" viewBox="0 0 18 18" fill="none" xmlns="http://www.w3.org/2000/svg">
<path d="M14.07 9.00085V9C14.07 7.99725 13.7727 7.01702 13.2156 6.18326C13.1894 6.14415 13.1628 6.10544 13.1356 6.06715C13.3109 6.12177 13.4944 6.15 13.68 6.15C14.1653 6.15 14.6308 5.9572 14.974 5.61401C15.3172 5.27081 15.51 4.80535 15.51 4.32C15.51 3.95806 15.4027 3.60425 15.2016 3.30331C15.0005 3.00236 14.7147 2.76781 14.3803 2.6293C14.0459 2.49079 13.678 2.45455 13.323 2.52516C12.968 2.59577 12.6419 2.77006 12.386 3.02599L12.9163 3.55632L12.386 3.026C12.1301 3.28192 11.9558 3.608 11.8852 3.96299C11.8254 4.26357 11.8422 4.57346 11.9329 4.86439C11.6251 4.64613 11.2924 4.4618 10.9402 4.31593C10.0138 3.93219 8.99438 3.83179 8.01089 4.02742C7.02741 4.22305 6.12402 4.70592 5.41497 5.41497C4.70592 6.12402 4.22305 7.02741 4.02742 8.01089C3.83179 8.99438 3.93219 10.0138 4.31593 10.9402C4.69967 11.8666 5.3495 12.6585 6.18326 13.2156C7.01702 13.7727 7.99725 14.07 9 14.07L9.00085 14.07C10.3448 14.0685 11.6333 13.5339 12.5836 12.5836C13.5339 11.6333 14.0685 10.3448 14.07 9.00085ZM11.13 9.00013C11.13 9.42136 11.0051 9.83312 10.771 10.1834C10.537 10.5336 10.2043 10.8067 9.81512 10.9679C9.42591 11.1291 8.99764 11.1713 8.58446 11.0891C8.17128 11.0069 7.79175 10.804 7.49386 10.5061C7.19598 10.2083 6.99311 9.82872 6.91093 9.41554C6.82874 9.00236 6.87092 8.57409 7.03214 8.18489C7.19335 7.79568 7.46636 7.46302 7.81664 7.22897C8.16679 6.995 8.57844 6.87009 8.99956 6.87C9.56435 6.87076 10.1058 7.09545 10.5052 7.49483C10.9045 7.89413 11.1292 8.43545 11.13 9.00013ZM17.25 5.04085V12.9592C17.2487 14.0968 16.7962 15.1874 15.9918 15.9918C15.1874 16.7962 14.0968 17.2487 12.9592 17.25H5.04085C3.90324 17.2487 2.81259 16.7962 2.00818 15.9918C1.20387 15.1875 0.751395 14.097 0.75 12.9596V5.04044C0.751395 3.90298 1.20387 2.8125 2.00818 2.00818C2.8125 1.20387 3.90298 0.751395 5.04044 0.75H12.9596C14.097 0.751395 15.1875 1.20387 15.9918 2.00818C16.7962 2.81259 17.2487 3.90324 17.25 5.04085Z" stroke="white" stroke-width="1.5"/>
</svg>
