<svg width="18" height="18" viewBox="0 0 18 18" fill="none" xmlns="http://www.w3.org/2000/svg">
<path d="M15.8227 1.22554C14.9941 0.4377 13.93 0.00473737 12.827 0.00473737C11.5531 0.00473737 10.3199 0.586937 9.44414 1.60383C9.28674 1.78691 9.13915 1.98344 9.00061 2.19688C7.92822 0.556569 6.13636 -0.285061 4.36413 0.0871653C2.8935 0.393883 1.73731 1.32271 0.929897 2.84589C-0.209312 4.99638 -0.302547 7.07052 0.654343 9.01105C1.16582 10.0492 1.82941 11.0609 2.68325 12.1038C4.24712 14.0144 6.09824 15.8278 8.50915 17.8087C8.66315 17.9358 8.82811 18 9.00024 18C9.26522 18 9.44414 17.846 9.53285 17.7705C11.7082 15.9853 13.417 14.3398 14.9111 12.5893C15.7453 11.6123 16.692 10.4114 17.3843 8.9117C17.6809 8.27093 18.0192 7.40848 17.9992 6.42325C17.9546 4.30312 17.2227 2.55436 15.8227 1.22554ZM16.2511 8.22017C15.6347 9.55377 14.765 10.6544 13.9949 11.5559C12.6134 13.1749 11.0337 14.7072 8.99797 16.3966C6.78259 14.5545 5.06774 12.863 3.61825 11.0913C2.83575 10.1355 2.23142 9.21711 1.77053 8.28221C1.04087 6.80285 1.12203 5.31828 2.02645 3.61247C2.63494 2.46368 3.49859 1.76522 4.59401 1.53659C4.80389 1.49234 5.0164 1.47065 5.2259 1.47065C6.5244 1.47065 7.67456 2.29493 8.32418 3.72613L8.43441 3.96517C8.54765 4.20942 8.78092 4.34824 9.01118 4.35475C9.25239 4.34954 9.47019 4.1912 9.57626 3.94218C9.80425 3.4077 10.053 2.99296 10.3565 2.63982C10.9929 1.90188 11.8932 1.47802 12.827 1.47802C13.6322 1.47802 14.4056 1.79168 15.0054 2.36174C16.1212 3.42071 16.6806 4.76125 16.7165 6.45665C16.729 7.09655 16.4885 7.70652 16.2511 8.22017Z" fill="#444444"/>
</svg>
