<svg width="52" height="52" viewBox="0 0 52 52" fill="none" xmlns="http://www.w3.org/2000/svg">
<path d="M7.45342 7.0166C3.0017 7.31223 -2.55766 13.2766 4.02844 24.3134C9.59087 30.7379 27.8856 46.1122 45.0826 41.934L47.0951 50.9999H6.20634L9.6358 29.7495" stroke="white" stroke-width="2"/>
<path d="M10.875 24.3135L12.6052 13.4552H16.0812V20.3532H18.2144C18.1839 16.8713 18.2576 8.41208 20.1715 4.54584C22.618 -0.396194 30.1653 -0.396268 33.1868 5.96592C34.5284 8.79082 33.8717 18.3832 33.8717 20.3532H36.5713V13.4552H40.8706L44.6361 37.6567" stroke="white" stroke-width="2"/>
<path d="M12.8405 9.48779C7.16916 10.6703 0.00889583 16.8254 13.6202 27.1527C30.6343 40.0618 44.4196 40.2145 51.0058 36.1743" stroke="white" stroke-width="2"/>
</svg>
