<svg width="37" height="37" viewBox="0 0 37 37" fill="none" xmlns="http://www.w3.org/2000/svg">
<path d="M36 36L27.5554 27.5554M27.5554 27.5554C28.9999 26.1109 30.1457 24.396 30.9274 22.5087C31.7092 20.6214 32.1116 18.5986 32.1116 16.5558C32.1116 14.513 31.7092 12.4902 30.9274 10.6028C30.1457 8.71553 28.9999 7.00067 27.5554 5.55618C26.1109 4.11169 24.396 2.96586 22.5087 2.18411C20.6214 1.40236 18.5986 1 16.5558 1C14.513 1 12.4902 1.40236 10.6028 2.18411C8.71553 2.96586 7.00067 4.11169 5.55618 5.55618C2.63891 8.47346 1 12.4301 1 16.5558C1 20.6814 2.63891 24.6381 5.55618 27.5554C8.47346 30.4726 12.4301 32.1116 16.5558 32.1116C20.6814 32.1116 24.6381 30.4726 27.5554 27.5554Z" stroke="white" stroke-width="2" stroke-linecap="round" stroke-linejoin="round"/>
</svg>
