<svg width="18" height="18" viewBox="0 0 18 18" fill="none" xmlns="http://www.w3.org/2000/svg">
<path d="M5.48107 12.4804C4.59824 12.4644 3.80241 12.0444 3.2705 11.3842C3.48172 11.3574 3.68981 11.315 3.89334 11.2566L3.83706 9.80102C2.84969 9.59847 2.03017 8.87955 1.66987 7.91843C1.89858 7.96366 2.13367 7.99095 2.37354 7.99826L4.93002 8.0762L2.82046 6.63001C2.02948 6.08776 1.50347 5.15795 1.50347 4.09692C1.50347 3.9396 1.51502 3.78518 1.53727 3.63446C3.43659 5.53377 5.99112 6.75176 8.82678 6.89807L9.81766 6.94919L9.59656 5.98194C9.54627 5.76191 9.52036 5.52996 9.52036 5.28661C9.52036 3.59171 10.8558 2.25 12.4619 2.25C13.3036 2.25 14.0663 2.61291 14.6034 3.20084L14.8891 3.51368L15.3045 3.4304C15.3831 3.41464 15.4613 3.39774 15.539 3.3797L15.9203 4.47233C15.852 4.52713 15.7827 4.58058 15.7123 4.63262L15.3934 4.86854L15.409 5.26494C15.4149 5.41652 15.4179 5.5714 15.4179 5.72634C15.4179 10.4269 11.9377 15.7499 5.66086 15.7499C4.70502 15.7499 3.78139 15.6077 2.90818 15.3432C4.02849 15.0513 5.05656 14.5232 5.93753 13.8147L7.55006 12.5178L5.48107 12.4804Z" stroke="white" stroke-width="1.5"/>
</svg>
