<svg width="18" height="18" viewBox="0 0 18 18" fill="none" xmlns="http://www.w3.org/2000/svg">
<path d="M7.875 17.1001L7.88472 16.3502L7.8846 16.3502L7.8841 16.3502L7.88199 16.3501L7.87341 16.35L7.83938 16.3495L7.70831 16.3476C7.59461 16.3458 7.43058 16.3431 7.22973 16.3392C6.82787 16.3316 6.27936 16.3196 5.69209 16.3023C4.52504 16.2679 3.26229 16.2137 2.66228 16.1371C2.55803 16.1114 2.46033 16.0935 2.36761 16.0764C2.00116 16.0091 1.71261 15.9561 1.40559 15.4992L1.40567 15.4991L1.39901 15.4895C1.25856 15.2874 1.12474 14.8683 1.02773 14.3995C0.98312 14.1839 0.951763 13.9863 0.931604 13.8425C0.921572 13.771 0.914429 13.7136 0.909882 13.6749L0.904994 13.6318L0.904192 13.6243L0.903091 13.6113L0.898276 13.5529C0.894093 13.5013 0.88807 13.4251 0.880818 13.3278C0.866309 13.1331 0.846908 12.8541 0.827494 12.5191C0.788586 11.8476 0.75 10.9572 0.75 10.0707V8.37164C0.75 7.48551 0.788586 6.59508 0.827494 5.92354C0.846908 5.58847 0.86631 5.30945 0.880819 5.11466C0.888071 5.01729 0.894095 4.94106 0.898278 4.88948L0.903093 4.83108L0.904192 4.81811L0.904993 4.81057L0.909881 4.76746C0.914428 4.72882 0.92157 4.67143 0.931603 4.59988C0.951762 4.45611 0.983118 4.25856 1.02772 4.04299C1.12473 3.57415 1.25856 3.15506 1.39906 2.95278L1.39914 2.95283L1.40559 2.94322C1.62694 2.61379 1.8316 2.48662 1.97396 2.42635C2.10201 2.37214 2.19127 2.35958 2.3229 2.34105C2.36392 2.33528 2.40905 2.32893 2.46076 2.32056C3.52949 2.21178 4.87234 2.15622 5.96232 2.12819C6.50866 2.11414 6.98684 2.10711 7.32826 2.1036C7.49892 2.10184 7.63526 2.10097 7.7287 2.10053L7.83557 2.10015L7.86282 2.1001L7.86956 2.1001L7.87115 2.1001L7.8715 2.1001H7.87155H7.87157H7.87843H7.87845H7.8785L7.87885 2.1001L7.88044 2.1001L7.88718 2.1001L7.91443 2.10015L8.0213 2.10053C8.11474 2.10097 8.25108 2.10184 8.42173 2.1036C8.76316 2.10711 9.24134 2.11414 9.78768 2.12819C10.8776 2.15621 12.2204 2.21178 13.2892 2.32055C13.341 2.32895 13.3861 2.33531 13.4272 2.34109C13.5586 2.3596 13.6478 2.37216 13.7758 2.42635C13.9181 2.48662 14.1227 2.61374 14.3438 2.94298L14.3437 2.94303L14.3505 2.95285C14.491 3.15509 14.6249 3.57421 14.7221 4.0431C14.7667 4.2587 14.7981 4.45627 14.8183 4.60006C14.8284 4.67162 14.8356 4.72902 14.8401 4.76767L14.845 4.81079L14.8458 4.81823L14.8469 4.83108L14.8517 4.88948C14.8559 4.94106 14.8619 5.01729 14.8692 5.11466C14.8837 5.30945 14.9031 5.58847 14.9225 5.92354C14.9614 6.59508 15 7.48551 15 8.37164V10.0707C15 10.9573 14.9614 11.8478 14.9225 12.5192C14.9031 12.8543 14.8837 13.1332 14.8692 13.328C14.8619 13.4253 14.8559 13.5015 14.8517 13.5531L14.8469 13.6115L14.8458 13.6243L14.845 13.6318L14.8401 13.6749C14.8356 13.7135 14.8284 13.7709 14.8183 13.8425C14.7981 13.9862 14.7667 14.1838 14.7221 14.3994C14.6249 14.8682 14.491 15.2874 14.3504 15.4898L14.3504 15.4897L14.3438 15.4996C14.1227 15.8288 13.9181 15.956 13.7756 16.0164C13.6477 16.0705 13.5592 16.0831 13.4285 16.1017C13.3869 16.1076 13.3411 16.1141 13.2884 16.1228C12.2192 16.2316 10.8754 16.2888 9.78479 16.3186C9.23792 16.3335 8.75923 16.3414 8.41742 16.3455C8.24657 16.3476 8.11006 16.3487 8.0165 16.3494L7.90949 16.35L7.88218 16.3501L7.87543 16.3501L7.87383 16.3501L7.87348 16.3501H7.87341L7.875 17.1001ZM7.875 17.1001C7.875 17.1001 3.78 17.0469 2.52 16.8748L15.5925 13.6951C15.5925 13.6951 15.4384 15.2381 14.9664 15.9176C14.4268 16.7214 13.8284 16.8044 13.4902 16.8514C13.453 16.8565 13.419 16.8613 13.3885 16.8665C11.1845 17.0931 7.875 17.1001 7.875 17.1001ZM5.49881 12.1297L5.49893 13.6137L6.69369 12.7334L10.9487 9.59838L11.7654 8.99663L10.9506 8.39222L6.69516 5.23548L5.4982 4.34757L5.49832 5.8379L5.49881 12.1297Z" stroke="white" stroke-width="1.5"/>
</svg>
